<svg id="eN04xIQ6RzB1" xmlns="http://www.w3.org/2000/svg" xmlns:xlink="http://www.w3.org/1999/xlink" viewBox="0 0 352 217" shape-rendering="geometricPrecision" text-rendering="geometricPrecision"><style><![CDATA[#eN04xIQ6RzB6_to {animation: eN04xIQ6RzB6_to__to 2000ms linear 1 normal forwards}@keyframes eN04xIQ6RzB6_to__to { 0% {transform: translate(78.143738px,109.048985px)} 50% {transform: translate(78.143738px,109.048985px)} 100% {transform: translate(216.778263px,108.500040px)}} #eN04xIQ6RzB6 {animation: eN04xIQ6RzB6_c_o 2000ms linear 1 normal forwards}@keyframes eN04xIQ6RzB6_c_o { 0% {opacity: 1} 75% {opacity: 1} 100% {opacity: 0}}]]></style><rect id="eN04xIQ6RzB2" width="352" height="217" rx="0" ry="0" transform="matrix(1 0 0 1 0.00000000000003 -0.00000000000003)" fill="rgb(229,229,229)" stroke="none" stroke-width="1"/><rect id="eN04xIQ6RzB3" width="352" height="217" rx="0" ry="0" transform="matrix(1 0 0 1 -1722.82066600000007 -293.01880382000002)" fill="rgb(255,255,255)" stroke="none" stroke-width="1"/><path id="eN04xIQ6RzB4" d="M147.313000,101.473000C153.560000,105.471000,153.433000,114.641000,147.077000,118.464000L85.520400,155.497000C78.802200,159.538000,70.257600,154.628000,70.366400,146.789000L71.417400,71.031000C71.526100,63.191400,80.203600,58.520600,86.807100,62.747100L147.313000,101.473000Z" fill="rgb(202,124,124)" fill-opacity="0.8" stroke="rgb(0,0,0)" stroke-width="1" stroke-linecap="round" stroke-linejoin="round" stroke-dashoffset="282.320000" stroke-dasharray="282.320000"/><path id="eN04xIQ6RzB5" d="M114.313000,101.473000C120.560000,105.471000,120.433000,114.641000,114.077000,118.464000L52.520400,155.497000C45.802200,159.538000,37.257600,154.628000,37.366400,146.789000L38.417400,71.031000C38.526100,63.191400,47.203600,58.520600,53.807200,62.747100L114.313000,101.473000Z" fill="rgb(136,199,207)" fill-opacity="0.8" stroke="none" stroke-width="1"/><g id="eN04xIQ6RzB6_to" transform="translate(78.143738,109.048985)"><path id="eN04xIQ6RzB6" d="M114.313000,101.473000C120.560000,105.471000,120.433000,114.641000,114.077000,118.464000L52.520400,155.497000C45.802200,159.538000,37.257600,154.628000,37.366400,146.789000L38.417400,71.031000C38.526100,63.191400,47.203600,58.520600,53.807200,62.747100L114.313000,101.473000Z" transform="translate(-78.143738,-109.048985)" fill="rgb(136,199,207)" fill-opacity="0.8" stroke="none" stroke-width="1"/></g></svg>