<svg width="352" height="217" viewBox="0 0 352 217" fill="none" xmlns="http://www.w3.org/2000/svg">
<rect width="352" height="217" fill="#E5E5E5"/>
<rect width="352" height="217" fill="white"/>
<path d="M147.313 101.473C153.56 105.471 153.433 114.641 147.077 118.464L85.5204 155.497C78.8022 159.538 70.2576 154.628 70.3664 146.789L71.4174 71.031C71.5261 63.1914 80.2036 58.5206 86.8071 62.7471L147.313 101.473Z" fill="#CA7C7C" fill-opacity="0.8"/>
<path d="M114.313 101.473C120.56 105.471 120.433 114.641 114.077 118.464L52.5204 155.497C45.8022 159.538 37.2576 154.628 37.3664 146.789L38.4174 71.031C38.5261 63.1914 47.2036 58.5206 53.8072 62.7471L114.313 101.473Z" fill="#88C7CF" fill-opacity="0.8"/>
<path d="M114.313 101.473C120.56 105.471 120.433 114.641 114.077 118.464L52.5204 155.497C45.8022 159.538 37.2576 154.628 37.3664 146.789L38.4174 71.031C38.5261 63.1914 47.2036 58.5206 53.8071 62.7471L114.313 101.473Z" fill="#88C7CF" fill-opacity="0.8"/>
</svg>
